<?xml version="1.0" encoding="utf-8"?>
<!-- Generator: Adobe Illustrator 21.0.2, SVG Export Plug-In . SVG Version: 6.00 Build 0)  -->
<svg version="1.1" id="chartbuilder-export" xmlns="http://www.w3.org/2000/svg" xmlns:xlink="http://www.w3.org/1999/xlink"
	 x="0px" y="0px" viewBox="0 0 640 315" style="enable-background:new 0 0 640 315;" xml:space="preserve">
<style type="text/css">
	.st0{fill:#C5FFFD;stroke:#5E65BF;stroke-width:14;stroke-miterlimit:10;}
	.st1{fill:none;stroke:#DDDDDD;}
	.st2{fill:#A50026;}
	.st3{font-family:'ArialMT';}
	.st4{font-size:20px;}
	.st5{fill:#006009;}
	.st6{fill:#C5FFFD;}
	.st7{font-size:17.0175px;}
	.st8{fill:none;stroke:#333333;}
</style>
<g id="svg-background-wrap">
	<rect x="10.3" y="8.7" class="st0" width="619.3" height="297.7"/>
</g>
<line class="st1" x1="240.8" y1="100.2" x2="583.1" y2="100.2"/>
<line class="st1" x1="240.8" y1="131.3" x2="583.1" y2="131.3"/>
<line class="st1" x1="240.8" y1="162.4" x2="583.1" y2="162.4"/>
<line class="st1" x1="240.8" y1="193.6" x2="583.1" y2="193.6"/>
<line class="st1" x1="240.8" y1="224.7" x2="583.1" y2="224.7"/>
<line class="st1" x1="240.8" y1="255.8" x2="583.1" y2="255.8"/>
<g>
	<text transform="matrix(1 0 0 1 96.8086 105.6934)" class="st2 st3 st4">базова вища</text>
</g>
<g>
	<text transform="matrix(1 0 0 1 148.0996 136.7939)" class="st2 st3 st4">вища</text>
</g>
<g>
	<text transform="matrix(1 0 0 1 13.6782 167.8955)" class="st2 st3 st4">загальна середня освіта</text>
</g>
<g>
	<text transform="matrix(1 0 0 1 57.498 198.9961)" class="st2 st3 st4">незакінчена вища</text>
</g>
<g>
	<text transform="matrix(1 0 0 1 129.1504 230.0967)" class="st2 st3 st4">середня</text>
</g>
<g>
	<text transform="matrix(1 0 0 1 45.9092 261.1982)" class="st2 st3 st4">середня спеціальна</text>
</g>
<text transform="matrix(1 0 0 1 227.4 56)" class="st5 st3 st4">Середній дохід</text>
<text transform="matrix(1 0 0 1 162.98 56)" class="st2 st3 st4">Освіта</text>
<g id="bar-series-group">
	<g>
		<g id="bar-series_8_" transform="translate(0,0)">
			<rect x="240.8" y="90.9" class="st5" width="60.3" height="17.9"/>
			<rect x="240.8" y="122" class="st5" width="207.5" height="17.9"/>
			<rect x="240.8" y="153.1" class="st5" width="271.2" height="17.9"/>
			<rect x="240.8" y="184.2" class="st5" width="7.4" height="17.9"/>
			<rect x="240.8" y="215.3" class="st5" width="26.3" height="17.9"/>
			<rect x="240.8" y="246.4" class="st5" width="58.4" height="17.9"/>
		</g>
	</g>
</g>
<g id="blocker-rect-group" transform="translate(0,0)">
	<rect x="301.2" y="91.3" class="st6" width="62.8" height="17.9"/>
	<rect x="448.3" y="122.4" class="st6" width="62.8" height="17.9"/>
	<rect x="512.1" y="153.5" class="st6" width="62.8" height="17.9"/>
	<rect x="248.2" y="184.6" class="st6" width="53.8" height="17.9"/>
	<rect x="267.1" y="215.7" class="st6" width="53.8" height="17.9"/>
	<rect x="299.2" y="246.8" class="st6" width="62.8" height="17.9"/>
</g>
<text transform="matrix(1 0 0 1 305.4072 106.2036)" class="st3 st7">135347</text>
<text transform="matrix(1 0 0 1 452.5938 137.3047)" class="st3 st7">465487</text>
<text transform="matrix(1 0 0 1 516.3076 168.4053)" class="st3 st7">608396</text>
<text transform="matrix(1 0 0 1 252.4395 199.5068)" class="st3 st7">16540</text>
<text transform="matrix(1 0 0 1 271.3354 230.6074)" class="st3 st7">58923</text>
<text transform="matrix(1 0 0 1 303.4883 261.708)" class="st3 st7">131042</text>
<g id="grid-lines::vertical-grid-lines">
	<line class="st8" x1="240.8" y1="87.8" x2="240.8" y2="268.2"/>
</g>
</svg>
